<?xml version="1.0" standalone="no"?>
<!DOCTYPE svg PUBLIC "-//W3C//DTD SVG 20010904//EN"
 "http://www.w3.org/TR/2001/REC-SVG-20010904/DTD/svg10.dtd">
<svg version="1.0" xmlns="http://www.w3.org/2000/svg"
 width="248.000000pt" height="167.000000pt" viewBox="0 0 248.000000 167.000000"
 preserveAspectRatio="xMidYMid meet">

<g transform="translate(0.000000,167.000000) scale(0.100000,-0.100000)"
fill="#000000" stroke="none">
<path d="M1560 1485 c-95 -21 -234 -94 -307 -160 -64 -57 -138 -159 -168 -230
-9 -22 -25 -71 -35 -110 l-19 -70 0 238 -1 237 -43 0 c-114 0 -265 -70 -361
-166 -67 -66 -127 -168 -150 -255 l-15 -54 0 133 c-1 151 5 143 -95 117 -232
-61 -337 -332 -206 -534 58 -89 179 -161 272 -161 l28 0 1 133 0 132 15 -55
c25 -97 74 -180 149 -255 100 -100 208 -152 353 -170 l52 -7 1 244 c1 231 1
240 14 180 8 -35 33 -102 56 -150 34 -70 58 -102 128 -172 148 -149 300 -207
514 -198 92 4 126 10 193 35 145 54 252 137 333 258 180 269 152 605 -70 839
-133 140 -276 205 -469 212 -69 2 -127 -1 -170 -11z"/>
</g>
</svg>
